<?xml version="1.0" encoding="utf-8"?>
<!-- Generator: Adobe Illustrator 15.1.0, SVG Export Plug-In . SVG Version: 6.00 Build 0)  -->
<!DOCTYPE svg PUBLIC "-//W3C//DTD SVG 1.1//EN" "http://www.w3.org/Graphics/SVG/1.1/DTD/svg11.dtd">
<svg version="1.1" id="Ebene_1" xmlns="http://www.w3.org/2000/svg" xmlns:xlink="http://www.w3.org/1999/xlink" x="0px" y="0px"
	 width="102.333px" height="28.333px" viewBox="0 0 102.333 28.333" enable-background="new 0 0 102.333 28.333"
	 xml:space="preserve">
<path fill="#FFFFFF" d="M1.775,13.929V7.831h4.56c0.863,0,1.529,0.172,1.998,0.517C8.802,8.694,9.036,9.18,9.036,9.811
	c0,0.628-0.234,1.113-0.704,1.458c-0.468,0.347-1.134,0.516-1.998,0.516H4.137v2.145L1.775,13.929L1.775,13.929z M5.432,9.143H4.137
	v1.315h1.295c0.385,0,0.651-0.047,0.797-0.147c0.147-0.097,0.221-0.267,0.221-0.509c0-0.246-0.074-0.416-0.221-0.514
	C6.083,9.19,5.817,9.143,5.432,9.143z M14.484,7.831c0.53,0,0.955,0.025,1.273,0.076c0.318,0.052,0.567,0.129,0.747,0.237
	c0.229,0.136,0.401,0.317,0.521,0.543c0.121,0.228,0.181,0.488,0.181,0.786c0,0.359-0.09,0.678-0.269,0.951
	c-0.178,0.273-0.424,0.471-0.738,0.593c0.269,0.113,0.458,0.253,0.567,0.418c0.108,0.167,0.172,0.46,0.191,0.88
	c0.002,0.047,0.005,0.112,0.009,0.193c0.038,0.798,0.146,1.241,0.321,1.328v0.097h-2.626c-0.08-0.13-0.123-0.379-0.132-0.75
	c-0.006-0.217-0.014-0.386-0.028-0.505c-0.025-0.223-0.101-0.377-0.226-0.47c-0.125-0.092-0.334-0.136-0.628-0.136h-1.409v1.858
	H9.842V7.831H14.484L14.484,7.831z M12.237,10.466h1.377c0.359,0,0.614-0.042,0.76-0.127c0.147-0.084,0.221-0.228,0.221-0.429
	c0-0.198-0.07-0.336-0.209-0.415c-0.14-0.078-0.417-0.118-0.831-0.118h-1.319V10.466z M20.574,7.831v2.979
	c0,0.615,0.092,1.041,0.279,1.277c0.185,0.238,0.506,0.357,0.961,0.357c0.456,0,0.776-0.119,0.958-0.355
	c0.184-0.235,0.275-0.661,0.275-1.279V7.831h2.367v3.202c0,1.058-0.289,1.834-0.865,2.327c-0.576,0.492-1.488,0.738-2.736,0.738
	c-1.239,0-2.15-0.248-2.731-0.742s-0.872-1.269-0.872-2.323V7.831H20.574z M19.865,7.163V5.967h1.677v1.196H19.865z M22.074,7.163
	V5.967h1.683v1.196H22.074z M26.751,13.929V7.831h6.087v1.496h-3.723v0.828h3.043v1.502h-3.043v2.269L26.751,13.929L26.751,13.929z
	 M33.591,13.929V7.831h4.56c0.863,0,1.529,0.172,1.998,0.517c0.469,0.346,0.704,0.832,0.704,1.463c0,0.628-0.235,1.113-0.704,1.458
	c-0.468,0.347-1.135,0.516-1.998,0.516h-2.197v2.145L33.591,13.929L33.591,13.929z M37.249,9.143h-1.294v1.315h1.294
	c0.385,0,0.652-0.047,0.797-0.147c0.146-0.097,0.22-0.267,0.22-0.509c0-0.246-0.074-0.416-0.22-0.514
	C37.899,9.19,37.634,9.143,37.249,9.143z M41.657,13.929V7.831h2.362v4.425h3.725v1.674L41.657,13.929L41.657,13.929z
	 M48.049,13.929l2.643-6.098h2.998l2.465,6.098h-2.561l-0.202-0.597h-2.595l-0.218,0.597H48.049z M51.356,11.825h1.514L52.134,9.68
	L51.356,11.825z M56.584,13.929V7.831h2.362v2.112l2.172-2.112h3.192l-2.544,2.206l2.796,3.893h-2.938l-1.647-2.473l-1.03,0.838
	v1.635L56.584,13.929L56.584,13.929z M64.834,13.929V7.831h6.462v1.496h-4.099v0.727h3.319v1.504h-3.319v0.799h4.3v1.571
	L64.834,13.929L64.834,13.929z M73.811,13.929V9.377h-2.207V7.831h6.784v1.546h-2.216v4.551H73.811z M80.627,13.929V9.377h-2.205
	V7.831h6.784v1.546h-2.215v4.551H80.627z M85.889,13.929V7.831h6.462v1.496h-4.1v0.727h3.318v1.504h-3.318v0.799h4.3v1.571
	L85.889,13.929L85.889,13.929z M93.303,13.929V7.831h2.795l2.355,3.513V7.831h2.288v6.099H98.09l-2.561-3.57v3.57L93.303,13.929
	L93.303,13.929z M1.807,17.133h5.445c1.762,0,3.104,0.363,4.026,1.09c0.921,0.726,1.384,1.783,1.384,3.173
	c0,1.386-0.46,2.438-1.379,3.162c-0.92,0.721-2.263,1.082-4.033,1.082H1.806L1.807,17.133L1.807,17.133z M5.098,19.241v4.14h1.636
	c0.854,0,1.465-0.16,1.834-0.484c0.37-0.323,0.555-0.852,0.555-1.59c0-0.729-0.187-1.258-0.56-1.581
	c-0.374-0.322-0.983-0.484-1.83-0.484H5.098L5.098,19.241z M15.945,25.64v-8.496h3.292v8.496H15.945L15.945,25.64z M22.452,23.053
	l3.985-0.005c0.032,0.23,0.175,0.406,0.431,0.533c0.257,0.123,0.606,0.184,1.051,0.184s0.776-0.05,0.997-0.151
	c0.221-0.103,0.33-0.255,0.33-0.458c0-0.181-0.096-0.324-0.287-0.434c-0.192-0.108-0.487-0.189-0.886-0.237l-2.458-0.304
	c-1.019-0.124-1.786-0.397-2.3-0.821c-0.516-0.428-0.773-0.993-0.773-1.708c0-0.948,0.389-1.641,1.168-2.078
	c0.78-0.435,2.021-0.655,3.725-0.655c1.769,0,3.084,0.219,3.945,0.655c0.862,0.438,1.327,1.116,1.396,2.039h-3.825
	c-0.042-0.265-0.203-0.471-0.482-0.604c-0.279-0.137-0.672-0.206-1.179-0.206c-0.368,0-0.656,0.052-0.867,0.153
	c-0.209,0.101-0.317,0.236-0.317,0.41c0,0.161,0.083,0.284,0.245,0.37c0.164,0.082,0.502,0.161,1.015,0.236l2.999,0.426
	c0.937,0.132,1.639,0.405,2.101,0.818c0.463,0.413,0.696,0.965,0.696,1.662c0,1.043-0.463,1.805-1.39,2.293
	c-0.928,0.486-2.388,0.729-4.383,0.729c-1.585,0-2.801-0.245-3.65-0.737C22.892,24.67,22.462,23.969,22.452,23.053z M43.47,20.712
	c-0.054-0.526-0.238-0.927-0.557-1.2c-0.318-0.277-0.753-0.417-1.304-0.417c-0.705,0-1.243,0.199-1.617,0.594
	c-0.373,0.394-0.559,0.963-0.559,1.707c0,0.736,0.187,1.304,0.559,1.693c0.374,0.39,0.912,0.587,1.617,0.587
	c0.51,0,0.921-0.116,1.233-0.35c0.312-0.23,0.516-0.572,0.618-1.028h3.797c-0.172,1.176-0.737,2.063-1.693,2.663
	c-0.954,0.602-2.273,0.902-3.954,0.902c-1.887,0-3.313-0.376-4.273-1.127c-0.961-0.753-1.44-1.867-1.44-3.341
	c0-1.478,0.479-2.594,1.44-3.347c0.962-0.751,2.386-1.129,4.273-1.129c1.763,0,3.125,0.326,4.09,0.979
	c0.964,0.653,1.476,1.592,1.534,2.812H43.47V20.712z M49.878,21.396c0-1.478,0.479-2.594,1.44-3.347s2.386-1.129,4.273-1.129
	s3.312,0.376,4.273,1.129c0.961,0.753,1.442,1.869,1.442,3.347c0,1.472-0.481,2.588-1.442,3.339
	c-0.962,0.751-2.384,1.129-4.273,1.129c-1.888,0-3.312-0.376-4.273-1.129C50.358,23.982,49.878,22.872,49.878,21.396z
	 M53.417,21.396c0,0.736,0.186,1.304,0.559,1.693c0.376,0.39,0.912,0.587,1.617,0.587s1.244-0.197,1.618-0.587
	c0.372-0.39,0.558-0.955,0.558-1.693c0-0.744-0.186-1.313-0.558-1.707c-0.374-0.394-0.913-0.594-1.618-0.594
	s-1.241,0.199-1.617,0.594C53.602,20.084,53.417,20.652,53.417,21.396z M67.859,17.144v4.153c0,0.853,0.129,1.446,0.387,1.775
	c0.259,0.331,0.706,0.498,1.342,0.498c0.637,0,1.082-0.165,1.336-0.494c0.254-0.327,0.383-0.923,0.383-1.779v-4.153h3.296v4.463
	c0,1.474-0.402,2.552-1.204,3.238c-0.803,0.688-2.072,1.03-3.81,1.03c-1.728,0-2.995-0.347-3.804-1.035
	c-0.811-0.688-1.213-1.768-1.213-3.233v-4.463H67.859L67.859,17.144z M78.343,25.64v-8.496h3.894l3.28,4.892v-4.892h3.189v8.496
	h-3.693l-3.568-4.975v4.975H78.343L78.343,25.64z M94.626,25.64v-6.343h-3.074v-2.153H101v2.153h-3.085v6.343H94.626z"/>
</svg>
