<?xml version="1.0" encoding="utf-8"?>
<!-- Generator: Adobe Illustrator 15.1.0, SVG Export Plug-In . SVG Version: 6.00 Build 0)  -->
<!DOCTYPE svg PUBLIC "-//W3C//DTD SVG 1.1//EN" "http://www.w3.org/Graphics/SVG/1.1/DTD/svg11.dtd">
<svg version="1.1" id="Ebene_1" xmlns="http://www.w3.org/2000/svg" xmlns:xlink="http://www.w3.org/1999/xlink" x="0px" y="0px"
	 width="278.5px" height="88.333px" viewBox="0 0 278.5 88.333" enable-background="new 0 0 278.5 88.333" xml:space="preserve">
<path fill="#FFFFFF" d="M92.12,57.55V46.243h8.456c1.601,0,2.836,0.318,3.705,0.959c0.869,0.642,1.304,1.543,1.304,2.713
	c0,1.164-0.435,2.063-1.304,2.703c-0.869,0.644-2.104,0.957-3.705,0.957H96.5v3.978H92.12V57.55z M98.901,48.675H96.5v2.438h2.401
	c0.715,0,1.208-0.088,1.479-0.272c0.272-0.181,0.409-0.494,0.409-0.943c0-0.455-0.137-0.771-0.409-0.953
	S99.616,48.675,98.901,48.675z M115.687,46.243c0.983,0,1.772,0.047,2.362,0.142c0.589,0.096,1.052,0.239,1.384,0.438
	c0.424,0.252,0.745,0.588,0.966,1.008c0.223,0.421,0.334,0.904,0.334,1.457c0,0.666-0.167,1.257-0.497,1.763
	c-0.331,0.508-0.787,0.873-1.369,1.1c0.498,0.209,0.851,0.469,1.052,0.775c0.201,0.311,0.319,0.854,0.355,1.631
	c0.005,0.088,0.01,0.207,0.016,0.358c0.07,1.479,0.271,2.3,0.596,2.462v0.178h-4.871c-0.148-0.238-0.229-0.701-0.245-1.392
	c-0.01-0.401-0.026-0.715-0.053-0.936c-0.046-0.414-0.185-0.699-0.417-0.871c-0.232-0.17-0.62-0.252-1.166-0.252h-2.613v3.446
	h-4.443V46.243H115.687L115.687,46.243z M111.52,51.128h2.555c0.665,0,1.138-0.078,1.41-0.236c0.272-0.156,0.409-0.422,0.409-0.795
	c0-0.367-0.13-0.623-0.387-0.769c-0.259-0.146-0.772-0.219-1.54-0.219h-2.447V51.128z M126.979,46.243v5.524
	c0,1.14,0.172,1.929,0.517,2.367c0.344,0.441,0.939,0.662,1.784,0.662c0.845,0,1.438-0.221,1.777-0.658
	c0.34-0.436,0.509-1.227,0.509-2.371v-5.524h4.39v5.938c0,1.961-0.535,3.4-1.603,4.314c-1.068,0.912-2.76,1.369-5.073,1.369
	c-2.298,0-3.988-0.459-5.065-1.377c-1.078-0.916-1.618-2.352-1.618-4.307v-5.938H126.979z M125.665,45.003v-2.216h3.111v2.216
	H125.665z M129.762,45.003v-2.216h3.121v2.216H129.762z M138.436,57.55V46.243h11.288v2.772h-6.904v1.535h5.644v2.785h-5.644v4.209
	L138.436,57.55L138.436,57.55z M151.12,57.55V46.243h8.455c1.601,0,2.836,0.318,3.705,0.959c0.869,0.642,1.305,1.543,1.305,2.713
	c0,1.164-0.436,2.063-1.305,2.703c-0.869,0.644-2.104,0.957-3.705,0.957h-4.074v3.978h-4.381V57.55z M157.901,48.675h-2.4v2.438h2.4
	c0.715,0,1.209-0.088,1.479-0.272c0.271-0.181,0.409-0.494,0.409-0.943c0-0.455-0.138-0.771-0.409-0.953
	S158.616,48.675,157.901,48.675z M166.077,57.55V46.243h4.38v8.205h6.905v3.104h-11.285V57.55z M177.929,57.55l4.902-11.309h5.559
	l4.571,11.309h-4.749l-0.375-1.108h-4.811l-0.404,1.108H177.929z M184.062,53.649h2.808l-1.362-3.978L184.062,53.649z
	 M193.757,57.55V46.243h4.381v3.916l4.029-3.916h5.918l-4.717,4.09l5.184,7.22h-5.449l-3.054-4.586l-1.911,1.553v3.033h-4.381V57.55
	z M209.056,57.55V46.243h11.983v2.772h-7.601v1.349h6.153v2.791h-6.153v1.481h7.974v2.912h-12.356V57.55z M225.703,57.55v-8.44
	h-4.093v-2.867h12.578v2.867h-4.107v8.44H225.703z M238.343,57.55v-8.44h-4.09v-2.867h12.579v2.867h-4.106v8.44H238.343z
	 M248.099,57.55V46.243h11.983v2.772h-7.603v1.349h6.154v2.791h-6.154v1.481h7.976v2.912h-12.356V57.55z M261.847,57.55V46.243
	h5.186l4.365,6.515v-6.515h4.244v11.31h-4.918l-4.748-6.621v6.621h-4.129V57.55z"/>
<path fill="#FFFFFF" d="M92.179,63.493h10.096c3.268,0,5.757,0.672,7.467,2.019c1.709,1.346,2.566,3.309,2.566,5.885
	c0,2.57-0.854,4.521-2.557,5.863c-1.705,1.338-4.197,2.006-7.478,2.006H92.177L92.179,63.493L92.179,63.493z M98.281,67.401v7.678
	h3.035c1.583,0,2.717-0.299,3.402-0.899c0.686-0.601,1.028-1.58,1.028-2.947c0-1.354-0.346-2.334-1.039-2.932
	c-0.692-0.599-1.823-0.902-3.392-0.902h-3.034V67.401z M118.396,79.265V63.513h6.104v15.752H118.396L118.396,79.265z M130.461,74.47
	l7.39-0.01c0.059,0.428,0.325,0.752,0.8,0.986c0.476,0.23,1.125,0.344,1.949,0.344c0.823,0,1.439-0.092,1.848-0.283
	c0.41-0.188,0.613-0.471,0.613-0.85c0-0.334-0.179-0.6-0.533-0.801c-0.354-0.203-0.903-0.352-1.641-0.439l-4.559-0.566
	c-1.889-0.229-3.312-0.733-4.265-1.522c-0.956-0.791-1.434-1.84-1.434-3.166c0-1.76,0.722-3.043,2.168-3.854
	c1.445-0.807,3.747-1.213,6.905-1.213c3.283,0,5.721,0.404,7.318,1.213c1.598,0.812,2.461,2.07,2.588,3.781h-7.094
	c-0.077-0.492-0.376-0.871-0.895-1.119c-0.519-0.252-1.247-0.383-2.187-0.383c-0.682,0-1.217,0.096-1.607,0.285
	c-0.389,0.186-0.588,0.438-0.588,0.76c0,0.297,0.153,0.527,0.453,0.685c0.303,0.155,0.93,0.301,1.882,0.438l5.562,0.789
	c1.737,0.247,3.039,0.754,3.896,1.52c0.859,0.766,1.291,1.789,1.291,3.082c0,1.934-0.858,3.348-2.577,4.252
	c-1.72,0.9-4.429,1.352-8.129,1.352c-2.939,0-5.194-0.453-6.768-1.365C131.278,77.47,130.48,76.169,130.461,74.47z M169.438,70.128
	c-0.101-0.974-0.442-1.718-1.033-2.226c-0.59-0.513-1.396-0.771-2.418-0.771c-1.307,0-2.305,0.367-2.998,1.101
	c-0.69,0.729-1.036,1.784-1.036,3.162c0,1.368,0.346,2.418,1.036,3.143c0.693,0.724,1.691,1.086,2.998,1.086
	c0.945,0,1.707-0.215,2.287-0.646c0.578-0.428,0.957-1.063,1.146-1.908h7.041c-0.319,2.182-1.367,3.824-3.14,4.939
	c-1.77,1.114-4.215,1.672-7.332,1.672c-3.5,0-6.143-0.697-7.924-2.092c-1.783-1.396-2.672-3.461-2.672-6.193
	c0-2.74,0.889-4.811,2.672-6.205s4.424-2.092,7.924-2.092c3.269,0,5.795,0.604,7.584,1.813c1.787,1.211,2.736,2.949,2.844,5.214
	h-6.979V70.128z M181.321,71.395c0-2.74,0.891-4.81,2.673-6.205c1.78-1.396,4.424-2.093,7.924-2.093
	c3.501,0,6.142,0.697,7.924,2.093c1.783,1.396,2.675,3.465,2.675,6.205c0,2.731-0.893,4.799-2.675,6.192
	c-1.782,1.395-4.42,2.094-7.924,2.094c-3.5,0-6.142-0.696-7.924-2.094C182.212,76.191,181.321,74.13,181.321,71.395z
	 M187.882,71.395c0,1.368,0.346,2.418,1.038,3.143c0.694,0.724,1.69,1.086,2.998,1.086s2.308-0.362,2.999-1.086
	c0.691-0.725,1.037-1.772,1.037-3.143c0-1.378-0.346-2.433-1.037-3.162c-0.691-0.731-1.691-1.101-2.999-1.101
	s-2.304,0.367-2.998,1.101C188.228,68.964,187.882,70.017,187.882,71.395z M214.666,63.513v7.701c0,1.58,0.237,2.681,0.717,3.293
	c0.479,0.615,1.31,0.922,2.486,0.922c1.18,0,2.005-0.305,2.478-0.914c0.473-0.608,0.709-1.713,0.709-3.301v-7.701h6.112v8.275
	c0,2.732-0.744,4.732-2.229,6.006c-1.49,1.271-3.845,1.908-7.067,1.908c-3.201,0-5.554-0.643-7.052-1.92
	c-1.504-1.275-2.25-3.275-2.25-5.994v-8.275H214.666L214.666,63.513z M234.106,79.265V63.513h7.223l6.08,9.07v-9.07h5.912v15.752
	h-6.848l-6.615-9.223v9.223H234.106L234.106,79.265z M264.3,79.265v-11.76h-5.699v-3.992h17.521v3.992h-5.721v11.76H264.3z"/>
<path fill="#FFFFFF" d="M67.606,10.381c10.699,9.692,15.722,24.886,11.731,39.79c-0.832,3.103-2.016,6.014-3.484,8.717l-6.925-3.417
	c0.551-1.325,1.023-2.703,1.397-4.136c0.902-3.457,1.182-6.933,0.924-10.308l8.015,1.339l0.069-0.537L71.2,40.401
	c-0.001-0.016-0.002-0.031-0.003-0.047c0,0.016-0.001,0.03-0.001,0.046l-0.005-0.001l0.003,0.077
	c-0.117,17.18-13.578,31.07-30.17,31.07c-13.156,0-24.343-8.729-28.473-20.909c0.034,0.145,0.08,0.284,0.116,0.428l-0.107-0.366
	l-3.237,1.187l0.227,0.536l3.169-1.167c1.121,4.323,3.141,8.346,5.918,11.77l-5.747,5.048C7.055,62.257,3.114,54.736,1.715,46.572
	c0.586,18.07,12.85,34.394,31.218,39.314c22.479,6.024,45.585-7.316,51.609-29.796C89.297,38.335,81.973,20.191,67.606,10.381z
	 M58.667,68.454l3.608,4.971c-5.107,3.249-10.942,5.325-17.066,5.99l-0.438-5.573C49.81,73.273,54.587,71.395,58.667,68.454z
	 M13.286,68.479l5.717-5.023c2.774,3.293,6.253,6,10.284,7.858l-2.616,5.666C21.561,75.023,17.038,72.112,13.286,68.479z
	 M30.631,78.292c-1.174-0.314-2.312-0.694-3.432-1.105l2.599-5.629c1.284,0.563,2.622,1.041,4.009,1.423
	c3.49,0.96,7,1.243,10.4,0.927l0.439,5.572C40.067,79.911,35.335,79.552,30.631,78.292z M62.75,73.114l-3.628-4.997
	c4.077-3.058,7.421-7.186,9.582-12.123l6.882,3.395C72.424,65.015,67.982,69.68,62.75,73.114z M4.007,29.892
	C10.486,9.798,30.431-2.602,50.822,2.862C67.485,7.327,78.61,22.135,79.141,38.526c-1.462-8.531-5.977-16.292-12.663-21.794
	l-1.438,1.985l-0.507-0.254l1.504-2.076c-2.357-1.879-4.965-3.488-7.808-4.747l-0.289,0.736l-0.553-0.12l0.329-0.839
	c-1.541-0.654-3.141-1.217-4.805-1.663c-1.604-0.43-3.209-0.733-4.81-0.938L48.077,9.03l-0.565,0.023l0.038-0.312
	c-3.462-0.386-6.889-0.251-10.198,0.34L37.038,9.18l-0.007-0.045c-3.12,0.587-6.128,1.592-8.959,2.958l-0.093,0.062l-0.006-0.013
	c-5.665,2.755-10.597,6.98-14.225,12.324l1.635,1.117l-0.051,0.649l-1.9-1.295c-2.038,3.103-3.646,6.564-4.704,10.328
	C4.395,50.695,8.09,59.021,13.797,65.42l-0.056-0.041C3.149,56.47,0.77,39.931,4.007,29.892z M46.62,49.958v-0.022
	c8.051-0.08,14.555-6.628,14.555-14.7c0-8.07-6.504-14.619-14.555-14.699l-14.727,0.002v4.266v0.145v16.666h0.994h3.299H46.62
	c3.456-0.078,6.234-2.902,6.234-6.377c0-3.476-2.778-6.299-6.234-6.377h-6.454v0.168v4.111v4.196h-3.979V24.948H46.62
	c5.615,0.078,10.146,4.652,10.146,10.287c0,5.637-4.53,10.211-10.146,10.29h-2.136v-2.331h-4.318v2.329h-3.979h-3.299h-0.994v16.935
	h0.168h4.125h3.979h4.076h0.242V51.449h-4.318v6.654h-3.979v-8.146H46.62z M44.484,33.137h2.136
	c1.094,0.075,1.959,0.985,1.959,2.099c0,1.114-0.865,2.023-1.959,2.098h-2.136V33.137z"/>
</svg>
